<?xml version="1.0" encoding="utf-8"?>
<!-- Generator: Adobe Illustrator 21.0.0, SVG Export Plug-In . SVG Version: 6.00 Build 0)  -->
<svg version="1.1" xmlns="http://www.w3.org/2000/svg" xmlns:xlink="http://www.w3.org/1999/xlink" x="0px" y="0px"
	 viewBox="0 0 3240 1080" style="enable-background:new 0 0 3240 1080;" xml:space="preserve">
<style type="text/css">
	.st0{fill:#CFAA62;}
	.st1{fill:#231F20;}
	.st2{fill:#FFFFFF;}
	.st3{font-family:'Arial-Black';}
	.st4{font-size:434.2305px;}
	.st5{font-family:'ArialMT';}
	.st6{font-size:155.8451px;}
</style>
<g id="bg">
</g>
<g id="db">
	<g>
		<text transform="matrix(1 0 0 1 1219.9213 751.945)" class="st3 st4">WALLA</text>
		<text transform="matrix(1 0 0 1 2108.7532 952.7751)" class="st5 st6">WORKOUT</text>
		<path class="st1" d="M563.7,791.5c0,0-47.5,40.7-62.3,71.9c-29.1,61.5-50.1,138.8-57.2,135.2c-23.9-12.3-102.9,52.7-114.2,29.5
			c-14.6-30,76.8-93.3,76.8-93.3s20.1-140.2,40.6-163.9c2.1-2.4,12.2-3.2,12.2-3.2s100.9-64.9,116.1-104.2
			c35.6-92.5,7.3-83.3-7-102.5c-10.8-14.5,13.6-75-0.8-64.1c-43.8,33-189.3,388.9-206.8,416.9c-21,33.7-78.3,100.3-111,113.7
			c-15.3,6.3-63.7-3.2-49.2-6.1c0,0-6-9.6,2.3-11.4c66.9-14.9,101.8-115,125.9-163.1c38.6-77.3,126.1-353,146.3-382.8
			c25.5-37.6,61.7-164.9,348-200c27.4-3.4,83.1,0.3,110.3,5.1c19.6,3.5,54.7,11.4,74.6,12.9c23.3,1.7,66.2-18,87.6-37.1
			c10-9,58.3-98.9,58.3-98.9S1131.5,54.5,1172,47c14.4-2.7,35.5,46.5,35.5,46.5s31.8-42.1,35.1-42.4c13.4-0.9-20.9,86.6-20.9,86.6
			s54.7,33.8,50.3,51.1c-0.5,2,53.5,69.9,53.3,72c-2.3,26.1-27.2,39.1-28.8,37.1c-1.7-2.1-4.9,1.4-6.4,3.6
			c-3.8,5.5-70-25.5-73.2-19.3c-11.7,23.5-31.4-18.1-29,17.6c1.1,17-7.2,42.1-11.2,45.8c-4.5,4.2-5.5,31.9-7.8,37.7
			c-13.1,32.1-41.4,61.6-60.2,78.4c-1.6,1.4-9.5,53.2-14,94.9c-3,27.6-3,50.9-4.1,51.8c-2.8,2.5-35.5,53.7-38.3,56.2
			c-2.3,2.1-34.1,14.8-44.7-0.8c-0.8-1.2,4.8-13.7,12-25.6c1.4-2.3-2.7-9.2-3-12c-1.7-15.5,18.2-4.6,13-7.2c-10-5-1.3-4.8,6.1-8.7
			c7.2-3.8,12.6-16.9,12.8-18.5c1.6-9.3-18.8-69.8-29.9-82.3c-1.5-1.7-16.6-16-20-36.3c-3.8-22.7,4.6-50.9,3.7-50.7
			c-7.8,2.2-14.7,55.6-8.1,66.4c12.4,20.3,22.1,30.3,9,36.2c-51.9,30.9-171.6,21.6-178.2,31.5c-0.3,0.5-6.3-37.3-26.7-57.8
			c-21.1-21.3-80.1-26-80.5-25.6c-3.5,3.5,56.8,17.1,70.7,33.4c15.3,17.8,29.8,59.9,29.5,60.4c-19.9,36.4-13.7,83.2-91.5,126.2
			c-21.3,11.8-66.7,31.4-87.3,44.3C619.6,750.1,563.7,791.5,563.7,791.5z"/>
		<path class="st2" d="M1227.2,195.3c-10,0.4-18.3-3.2-18.4-8c-0.2-4.8,8.1-6.7,18.1-7.1s17.9,1,18.1,5.8
			C1245.2,190.8,1237.2,195,1227.2,195.3z"/>
		<path class="st2" d="M1299.8,270.9c-6.2-4.2,4.6-1.8,6.9-5.2c2.3-3.4-4.7-11.4,1.5-7.1c6.2,4.2,9.3,10.4,7,13.8
			S1306,275.1,1299.8,270.9z"/>
	</g>
</g>
<g id="reglas">
</g>
</svg>
